<svg id="Capa_1" enable-background="new 0 0 512 512" height="60" viewBox="0 0 512 512" width="60" xmlns="http://www.w3.org/2000/svg"><g><g><path clip-rule="evenodd" d="m99.28 22.671v85.718 42.802h131.829v-42.802-50.031-18.708-3.458c0-14.4 11.888-26.192 26.406-26.192h-8.202-137.259c-7.03 0-12.774 5.698-12.774 12.671z" fill="#fff" fill-rule="evenodd"/></g><g><path clip-rule="evenodd" d="m231.109 39.65v18.708h52.812v-22.166c0-14.4-11.888-26.192-26.406-26.192-14.517 0-26.406 11.792-26.406 26.192z" fill="#cfd3df" fill-rule="evenodd"/></g><g><path clip-rule="evenodd" d="m61.643 196.119h207.103v60.944h-207.103zm-45.296-66.131v350.412c0 11.877 9.802 21.6 21.776 21.6h254.17c11.974 0 21.748-9.723 21.748-21.6v-87.702-139.632-43.766-79.312c0-11.877-9.774-21.6-21.748-21.6h-61.185v42.802h-131.828v-42.802h-61.156c-11.974.001-21.777 9.723-21.777 21.6zm45.296 172.032h207.103v51.675 51.675 51.675h-69.044-69.015-69.044v-51.675-51.675z" fill="#98eaf9" fill-rule="evenodd"/></g><g><path clip-rule="evenodd" d="m61.643 302.02h69.044v51.675h-69.044z" fill="#9ea6bf" fill-rule="evenodd"/></g><g><path clip-rule="evenodd" d="m130.687 302.02h69.015v51.675h-69.015z" fill="#cfd3df" fill-rule="evenodd"/></g><g><path clip-rule="evenodd" d="m199.702 302.02h69.044v51.675h-69.044z" fill="#9ea6bf" fill-rule="evenodd"/></g><g><path clip-rule="evenodd" d="m199.702 353.694h69.044v51.675h-69.044z" fill="#cfd3df" fill-rule="evenodd"/></g><g><path clip-rule="evenodd" d="m130.687 353.694h69.015v51.675h-69.015z" fill="#9ea6bf" fill-rule="evenodd"/></g><g><path clip-rule="evenodd" d="m61.643 353.694h69.044v51.675h-69.044z" fill="#cfd3df" fill-rule="evenodd"/></g><g><path clip-rule="evenodd" d="m61.643 405.369h69.044v51.675h-69.044z" fill="#9ea6bf" fill-rule="evenodd"/></g><g><path clip-rule="evenodd" d="m130.687 405.369h69.015v51.675h-69.015z" fill="#cfd3df" fill-rule="evenodd"/></g><g><path clip-rule="evenodd" d="m199.702 405.369h69.044v51.675h-69.044z" fill="#9ea6bf" fill-rule="evenodd"/></g><g><path clip-rule="evenodd" d="m61.643 196.119h207.103v60.944h-207.103z" fill="#fff" fill-rule="evenodd"/></g><g><path clip-rule="evenodd" d="m314.041 209.3v43.766h181.611v-29.055c0-8.079-6.687-14.712-14.86-14.712h-166.751z" fill="#cfd3df" fill-rule="evenodd"/></g><g><path clip-rule="evenodd" d="m314.041 253.066v139.632h166.751c8.173 0 14.86-6.633 14.86-14.712v-124.92zm94.335 77.413c0-11.565 9.459-20.919 21.09-20.919 11.66 0 21.119 9.354 21.119 20.919 0 11.537-9.459 20.919-21.119 20.919-11.631 0-21.09-9.382-21.09-20.919zm-42.18 0c0-11.565 9.459-20.919 21.09-20.919 11.66 0 21.09 9.354 21.09 20.919 0 11.537-9.431 20.919-21.09 20.919-11.631 0-21.09-9.382-21.09-20.919z" fill="#fff" fill-rule="evenodd"/></g><g><path clip-rule="evenodd" d="m366.196 330.479c0 11.537 9.459 20.919 21.09 20.919 11.66 0 21.09-9.383 21.09-20.919 0-11.565-9.431-20.919-21.09-20.919-11.631 0-21.09 9.354-21.09 20.919z" fill="#cbf4fb" fill-rule="evenodd"/></g><g><path clip-rule="evenodd" d="m408.376 330.479c0 11.537 9.459 20.919 21.09 20.919 11.66 0 21.119-9.383 21.119-20.919 0-11.565-9.459-20.919-21.119-20.919-11.631 0-21.09 9.354-21.09 20.919z" fill="#cbf4fb" fill-rule="evenodd"/></g><g><path d="m61.644 267.062h207.103c5.522 0 10-4.478 10-10v-60.943c0-5.522-4.478-10-10-10h-207.103c-5.522 0-10 4.478-10 10v60.943c0 5.523 4.477 10 10 10zm10-60.943h187.103v40.943h-187.103z"/><path d="m51.644 457.043c0 5.522 4.478 10 10 10h207.103c5.522 0 10-4.478 10-10v-155.023c0-5.522-4.478-10-10-10h-207.103c-5.522 0-10 4.478-10 10zm158.058-145.023h49.044v31.675h-49.044zm0 51.674h49.044v31.675h-49.044zm0 51.675h49.044v31.674h-49.044zm-69.015-103.349h49.016v31.675h-49.016zm0 51.674h49.016v31.675h-49.016zm0 51.675h49.016v31.674h-49.016zm-69.043-103.349h49.043v31.675h-49.043zm0 51.674h49.043v31.675h-49.043zm0 51.675h49.043v31.674h-49.043z"/><path d="m387.286 361.398c8.133 0 15.543-3.126 21.09-8.229 5.547 5.103 12.957 8.229 21.091 8.229 17.159 0 31.119-13.871 31.119-30.92s-13.96-30.919-31.119-30.919c-8.134 0-15.544 3.126-21.091 8.229-5.546-5.103-12.957-8.229-21.09-8.229-17.144 0-31.091 13.87-31.091 30.919s13.948 30.92 31.091 30.92zm42.181-41.838c6.131 0 11.119 4.898 11.119 10.919s-4.988 10.92-11.119 10.92c-6.115 0-11.091-4.898-11.091-10.92 0-6.021 4.976-10.919 11.091-10.919zm-42.181 0c6.115 0 11.09 4.898 11.09 10.919s-4.975 10.92-11.09 10.92-11.091-4.898-11.091-10.92c0-6.021 4.976-10.919 11.091-10.919z"/><path d="m138.831 69.038h52.755c5.522 0 10-4.478 10-10s-4.478-10-10-10h-52.755c-5.522 0-10 4.478-10 10s4.478 10 10 10z"/><path d="m138.831 109.034h52.755c5.522 0 10-4.478 10-10s-4.478-10-10-10h-52.755c-5.522 0-10 4.478-10 10s4.478 10 10 10z"/><path d="m480.792 199.3h-156.751v-69.312c0-17.424-14.241-31.6-31.747-31.6h-51.186v-30.03h42.812c5.522 0 10-4.478 10-10v-22.167c0-19.956-16.331-36.191-36.405-36.191-1.839 0-145.461 0-145.461 0-12.558 0-22.774 10.17-22.774 22.671v75.718h-51.156c-17.521 0-31.776 14.176-31.776 31.6v125.997c0 5.522 4.478 10 10 10s10-4.478 10-10v-125.998c0-6.396 5.283-11.6 11.776-11.6h51.156v22.803h-21.15c-5.522 0-10 4.478-10 10s4.478 10 10 10h31.15 131.828 28.492c5.522 0 10-4.478 10-10s-4.478-10-10-10h-18.492v-22.803h51.186c6.478 0 11.747 5.203 11.747 11.6v350.412c0 6.396-5.27 11.6-11.747 11.6h-254.17c-6.493 0-11.776-5.203-11.776-11.6v-130.305c0-5.522-4.478-10-10-10s-10 4.478-10 10v130.305c0 17.424 14.255 31.6 31.776 31.6h254.17c17.506 0 31.747-14.176 31.747-31.6v-77.702h156.751c13.708 0 24.86-11.086 24.86-24.712v-153.974c0-13.626-11.152-24.712-24.86-24.712zm-239.684-159.651v-3.458c0-8.928 7.359-16.191 16.406-16.191 9.046 0 16.405 7.264 16.405 16.191v12.167h-32.812v-8.709zm-20-3.458v105h-111.828v-118.52c0-1.448 1.271-2.671 2.773-2.671h112.917c-2.465 4.876-3.862 10.373-3.862 16.191zm264.544 341.795c0 2.554-2.226 4.712-4.86 4.712h-156.751v-119.632h161.611zm0-134.92h-161.611v-23.766h156.751c2.635 0 4.86 2.158 4.86 4.712z"/><path d="m16.348 315.194c5.522 0 10-4.478 10-10v-.057c0-5.522-4.478-9.972-10-9.972s-10 4.506-10 10.028 4.477 10.001 10 10.001z"/></g></g></svg>