<svg height="20px" viewBox="0 -10 512.00256 512" width="20px" xmlns="http://www.w3.org/2000/svg"><g fill="#ff6977"><path d="m228.730469 32.070312c-11.730469-1.890624-23.597657 3.816407-32.714844 14.308594-9.113281-10.492187-20.984375-16.199218-32.714844-14.308594-20.898437 3.363282-33.445312 29.5625-28.023437 58.511719 5.425781 28.949219 26.761718 49.691407 47.660156 46.324219 4.851562-.78125 9.246094-2.804688 13.078125-5.796875 3.832031 2.992187 8.226563 5.015625 13.082031 5.796875 20.898438 3.367188 42.234375-17.375 47.65625-46.324219s-7.125-55.148437-28.023437-58.511719zm0 0"/><path d="m352.730469 32.070312c-11.730469-1.890624-23.601563 3.816407-32.714844 14.308594-9.113281-10.492187-20.984375-16.199218-32.714844-14.308594-20.898437 3.363282-33.445312 29.5625-28.023437 58.511719s26.757812 49.691407 47.65625 46.324219c4.855468-.78125 9.25-2.804688 13.082031-5.796875 3.832031 2.992187 8.226563 5.015625 13.078125 5.796875 20.898438 3.367188 42.234375-17.375 47.65625-46.324219 5.425781-28.949219-7.121094-55.148437-28.019531-58.511719zm0 0"/><path d="m165.792969 104.9375c-11.730469-1.890625-23.601563 3.816406-32.714844 14.308594-9.113281-10.492188-20.984375-16.199219-32.714844-14.308594-20.898437 3.367188-33.445312 29.5625-28.023437 58.511719 5.421875 28.953125 26.757812 49.691406 47.65625 46.328125 4.855468-.78125 9.25-2.808594 13.082031-5.800782 3.832031 2.992188 8.226563 5.019532 13.078125 5.800782 20.898438 3.363281 42.234375-17.375 47.65625-46.328125 5.425781-28.949219-7.121094-55.144531-28.019531-58.511719zm0 0"/><path d="m289.792969 104.9375c-11.730469-1.890625-23.601563 3.816406-32.714844 14.308594-9.117187-10.492188-20.984375-16.199219-32.714844-14.308594-20.898437 3.367188-33.445312 29.5625-28.023437 58.511719 5.421875 28.953125 26.757812 49.691406 47.65625 46.328125 4.851562-.78125 9.25-2.808594 13.082031-5.800782 3.832031 2.992188 8.226563 5.019532 13.078125 5.800782 20.898438 3.363281 42.234375-17.375 47.65625-46.328125 5.425781-28.949219-7.121094-55.144531-28.019531-58.511719zm0 0"/><path d="m413.792969 104.9375c-11.734375-1.890625-23.601563 3.816406-32.714844 14.308594-9.117187-10.492188-20.984375-16.199219-32.714844-14.308594-20.902343 3.367188-33.445312 29.5625-28.023437 58.511719 5.421875 28.953125 26.757812 49.691406 47.65625 46.328125 4.851562-.78125 9.25-2.808594 13.078125-5.800782 3.832031 2.992188 8.226562 5.019532 13.082031 5.800782 20.898438 3.363281 42.234375-17.375 47.65625-46.328125 5.421875-28.949219-7.121094-55.144531-28.019531-58.511719zm0 0"/></g><path d="m97.671875 481.929688h316.664063c19.695312 0 35.664062-15.96875 35.664062-35.667969v-262.328125h-387.996094v262.328125c0 19.699219 15.96875 35.667969 35.667969 35.667969zm0 0" fill="#ffcb7c"/><path d="m114.21875 280.878906h283.566406l52.109375-96.945312h-387.78125zm0 0" fill="#ffe6c0"/><path d="m174.621094 359.972656c-8.195313-1.320312-16.484375 2.667969-22.851563 9.996094-6.367187-7.328125-14.660156-11.316406-22.855469-9.996094-14.597656 2.351563-23.363281 20.648438-19.574218 40.875 3.789062 20.222656 18.691406 34.710938 33.292968 32.359375 3.386719-.546875 6.460938-1.960937 9.136719-4.050781 2.675781 2.089844 5.746094 3.503906 9.136719 4.050781 14.597656 2.351563 29.5-12.136719 33.289062-32.359375 3.789063-20.222656-4.976562-38.523437-19.574218-40.875zm0 0" fill="#ff6977"/><path d="m510.8125 276.039062-52-96.835937c-1.6875-3.136719-5-5.269531-8.8125-5.269531h-.457031c.84375-2.824219 1.550781-5.703125 2.101562-8.644532 3.691407-19.71875.246094-38.9375-9.453125-52.730468-6.839844-9.722656-16.109375-15.769532-26.808594-17.496094-9.003906-1.445312-18.171874.371094-26.632812 5.070312.722656-2.523437 1.34375-5.09375 1.832031-7.710937 3.691407-19.71875.246094-38.9375-9.453125-52.730469-6.839844-9.722656-16.109375-15.773437-26.808594-17.496094-5.707031-.917968-11.480468-.515624-17.097656 1.089844 1.796875-1.683594 3.917969-3.042968 6.285156-3.976562 5.140626-2.027344 7.65625-7.835938 5.628907-12.976563-2.023438-5.136719-7.832031-7.65625-12.972657-5.628906-11.769531 4.648437-20.507812 14.472656-23.789062 26.578125-8.46875-4.710938-17.652344-6.535156-26.664062-5.085938-10.699219 1.722657-19.96875 7.769532-26.808594 17.496094-.308594.4375-.59375.894532-.886719 1.34375-.296875-.449218-.578125-.90625-.886719-1.34375-6.839844-9.722656-16.109375-15.773437-26.808594-17.496094-5.707031-.917968-11.480468-.515624-17.097656 1.089844 1.796875-1.683594 3.917969-3.042968 6.285156-3.980468 5.140626-2.027344 7.65625-7.835938 5.628907-12.972657-2.027344-5.136719-7.832031-7.660156-12.972657-5.628906-11.769531 4.648437-20.507812 14.472656-23.789062 26.578125-8.46875-4.710938-17.652344-6.539062-26.664062-5.089844-10.699219 1.726563-19.972657 7.773438-26.808594 17.5-9.703125 13.789063-13.148438 33.011719-9.453125 52.730469.574219 3.078125 1.316406 6.09375 2.214843 9.046875-9.074218-5.683594-19.078124-7.984375-28.890624-6.40625-10.699219 1.722656-19.972657 7.773438-26.8125 17.492188-9.699219 13.792968-13.144532 33.011718-9.453126 52.734374.550782 2.9375 1.257813 5.820313 2.101563 8.640626h-2.609375c-3.628906 0-6.796875 1.941406-8.550781 4.832031-.042969.066406-.085938.148437-.132813.222656-.039062.070313-.085937.140625-.125.210937v.003907l-52 96.835937c-2.613281 4.863282-.785156 10.925782 4.078125 13.539063 1.507813.808593 3.125 1.191406 4.722657 1.191406 3.566406 0 7.015624-1.910156 8.820312-5.269531l33.1875-61.808594v222.574219c0 25.179687 20.488281 45.664062 45.667969 45.664062h316.664062c25.179688 0 45.664063-20.484375 45.664063-45.664062v-222.570313l33.191406 61.808594c1.804688 3.359375 5.253906 5.269531 8.816406 5.269531 1.597656 0 3.21875-.382812 4.722656-1.191406 4.871094-2.613281 6.695313-8.675781 4.085938-13.539063zm-98.613281-161.226562c6.636719 1.066406 11.078125 5.621094 13.632812 9.253906 6.519531 9.269532 8.820313 23.304688 6.152344 37.542969-.804687 4.289063-2.015625 8.414063-3.617187 12.324219h-94.582032c-1.601562-3.910156-2.8125-8.035156-3.617187-12.324219-2.667969-14.238281-.363281-28.273437 6.152343-37.542969 2.558594-3.632812 6.996094-8.1875 13.632813-9.253906 7.820313-1.261719 16.410156 2.746094 23.574219 10.992188 1.898437 2.1875 4.652344 3.441406 7.550781 3.441406 2.894531 0 5.648437-1.253906 7.546875-3.441406 7.164062-8.246094 15.765625-12.25 23.574219-10.992188zm-206.03125 46.796875c-2.664063-14.238281-.363281-28.273437 6.15625-37.542969 2.554687-3.632812 6.992187-8.1875 13.628906-9.257812 7.816406-1.257813 16.410156 2.75 23.574219 10.996094 1.898437 2.1875 4.652344 3.441406 7.550781 3.441406 2.894531 0 5.648437-1.257813 7.546875-3.441406 1.953125-2.246094 4.011719-4.164063 6.128906-5.761719.105469-.050781.210938-.089844.3125-.144531.8125-.429688 1.527344-.964844 2.167969-1.5625 4.9375-3.050782 10.105469-4.308594 14.96875-3.527344 6.636719 1.070312 11.074219 5.625 13.628906 9.257812 6.519531 9.269532 8.820313 23.304688 6.152344 37.542969-.800781 4.289063-2.015625 8.414063-3.617187 12.324219h-94.578126c-1.605468-3.910156-2.816406-8.035156-3.621093-12.324219zm82.722656-119.667969c7.808594-1.261718 16.410156 2.75 23.578125 10.996094 1.898438 2.1875 4.652344 3.441406 7.546875 3.441406s5.648437-1.257812 7.550781-3.441406c7.164063-8.246094 15.753906-12.253906 23.574219-10.996094 6.636719 1.066406 11.074219 5.625 13.632813 9.257813 6.519531 9.269531 8.816406 23.304687 6.152343 37.542969-.582031 3.105468-1.378906 6.121093-2.382812 9.035156-7.054688-2.914063-14.46875-3.886719-21.769531-2.710938-10.699219 1.722656-19.972657 7.769532-26.808594 17.492188-.308594.441406-.59375.898437-.886719 1.347656-.296875-.449219-.582031-.90625-.886719-1.34375-6.839844-9.722656-16.109375-15.773438-26.808594-17.496094-6.730468-1.082031-13.550781-.339844-20.105468 2.066406-.898438-2.714843-1.632813-5.515624-2.171875-8.390624-2.664063-14.238282-.363281-28.273438 6.15625-37.542969 2.554687-3.632813 6.992187-8.191407 13.628906-9.257813zm-137.628906 9.257813c2.554687-3.632813 6.996093-8.191407 13.628906-9.257813 7.8125-1.261718 16.414063 2.746094 23.578125 10.996094 1.898438 2.183594 4.652344 3.4375 7.546875 3.4375 2.898437 0 5.648437-1.253906 7.550781-3.4375 7.164063-8.246094 15.761719-12.253906 23.574219-10.996094 6.636719 1.066406 11.074219 5.625 13.632813 9.257813 6.519531 9.269531 8.820312 23.304687 6.152343 37.542969-.582031 3.101562-1.378906 6.121093-2.382812 9.035156-7.054688-2.914063-14.46875-3.886719-21.769531-2.714844-10.699219 1.726562-19.96875 7.773438-26.808594 17.496094-.308594.4375-.59375.898437-.886719 1.347656-.296875-.449219-.578125-.910156-.886719-1.347656-6.839844-9.722656-16.109375-15.769532-26.808594-17.496094-6.730468-1.078125-13.550781-.335938-20.105468 2.066406-.898438-2.710937-1.632813-5.511718-2.171875-8.386718-2.664063-14.238282-.363281-28.273438 6.15625-37.542969zm-69.09375 110.410156c-2.664063-14.238281-.363281-28.273437 6.15625-37.542969 2.554687-3.632812 6.992187-8.1875 13.628906-9.257812 7.824219-1.257813 16.414063 2.75 23.578125 10.996094 1.898438 2.1875 4.652344 3.441406 7.546875 3.441406s5.648437-1.257813 7.550781-3.441406c1.949219-2.242188 4.003906-4.160157 6.117188-5.757813.105468-.050781.21875-.09375.320312-.148437.816406-.433594 1.539063-.96875 2.175782-1.570313 4.933593-3.046875 10.09375-4.304687 14.960937-3.519531 6.636719 1.070312 11.074219 5.625 13.628906 9.257812 6.519531 9.269532 8.820313 23.304688 6.152344 37.542969-.800781 4.289063-2.015625 8.414063-3.617187 12.324219h-94.578126c-1.601562-3.910156-2.816406-8.035156-3.621093-12.324219zm332.167969 310.320313h-316.664063c-14.152344 0-25.667969-11.511719-25.667969-25.664063v-222.808594l33.40625 62.15625c1.746094 3.242188 5.128906 5.265625 8.808594 5.265625h101.785156c5.519532 0 10-4.480468 10-10 0-5.523437-4.480468-10-10-10h-95.804687l-41.359375-76.945312h354.324218l-41.355468 76.945312h-95.804688c-5.523437 0-10 4.476563-10 10 0 5.519532 4.476563 10 10 10h101.78125c3.683594 0 7.066406-2.023437 8.808594-5.265625l33.40625-62.15625v222.808594c0 14.152344-11.511719 25.664063-25.664062 25.664063zm0 0"/><path d="m392.332031 374.984375h-83.011719c-5.519531 0-10 4.480469-10 10 0 5.523437 4.480469 10 10 10h83.011719c5.519531 0 10-4.476563 10-10 0-5.519531-4.476562-10-10-10zm0 0"/><path d="m392.332031 423.457031h-41.503906c-5.523437 0-10 4.480469-10 10 0 5.523438 4.476563 10 10 10h41.503906c5.519531 0 10-4.476562 10-10 0-5.519531-4.476562-10-10-10zm0 0"/><path d="m176.210938 350.101562c-4.171876-.671874-8.375-.445312-12.472657.613282 1.402344-3.203125 3.519531-6.09375 6.25-8.421875 4.203125-3.582031 4.707031-9.894531 1.125-14.097657-3.582031-4.203124-9.894531-4.710937-14.097656-1.125-7.492187 6.386719-12.5 15.039063-14.394531 24.519532-4.96875-1.777344-10.160156-2.316406-15.296875-1.488282-8.175781 1.316407-15.53125 6.097657-20.710938 13.460938-7.242187 10.296875-9.832031 24.554688-7.101562 39.125 4.464843 23.847656 21.460937 40.777344 39.90625 40.777344 1.589843 0 3.195312-.125 4.800781-.382813 2.628906-.425781 5.148438-1.191406 7.550781-2.285156 2.398438 1.097656 4.917969 1.859375 7.546875 2.285156 1.605469.257813 3.207032.382813 4.800782.382813 18.445312 0 35.441406-16.929688 39.90625-40.777344 2.730468-14.570312.140624-28.828125-7.101563-39.125-5.179687-7.367188-12.535156-12.144531-20.710937-13.460938zm8.15625 48.90625c-2.984376 15.933594-13.925782 25.613282-21.871094 24.328126-1.617188-.261719-3.15625-.953126-4.570313-2.0625-3.617187-2.824219-8.695312-2.824219-12.3125 0-1.417969 1.105468-2.953125 1.800781-4.570312 2.0625-7.953125 1.28125-18.890625-8.398438-21.875-24.328126-1.714844-9.164062-.292969-18.113281 3.804687-23.9375 2.109375-3.003906 4.644532-4.761718 7.535156-5.226562.503907-.078125 1.011719-.121094 1.53125-.121094 4.007813 0 8.367188 2.414063 12.179688 6.804688 1.902344 2.1875 4.65625 3.441406 7.550781 3.441406s5.648438-1.257812 7.546875-3.441406c4.308594-4.957032 9.308594-7.390625 13.714844-6.683594 2.890625.464844 5.421875 2.222656 7.535156 5.226562 4.09375 5.824219 5.515625 14.773438 3.800782 23.9375zm0 0"/><path d="m256.003906 270.769531c-5.523437 0-10 4.476563-10 10v.109375c0 5.519532 4.476563 10 10 10 5.519532 0 10-4.480468 10-10v-.109375c0-5.523437-4.480468-10-10-10zm0 0"/></svg>